PathFileType	4	(X/Y/Z)	C:/Users/opensim2020/Desktop/walking_exp_matlab/subject02_walking04_straight_01.trc	
DataRate	CameraRate	NumFrames	NumMarkers	Units	OrigDataRate	OrigDataStartFrame	OrigNumFrames	
100.00	100.00	8	42	mm	100.00	991	302	
Frame#	Time	LFHD			RFHD			LBHD			RBHD			C7			T10			CLAV			STRN			RBAK			LSHO			LUPA			LELB			LFRM			LWRA			LWRB			LFIN			RSHO			RUPA			RELB			RFRM			RWRA			RWRB			RFIN			LASI			RASI			LPSI			RPSI			LTHI			LKNE			LTIB			LANK			LHEE			LTOE			RTHI			RKNE			RTIB			RANK			RHEE			RTOE			*39			*40			*41			
		X1	Y1	Z1	X2	Y2	Z2	X3	Y3	Z3	X4	Y4	Z4	X5	Y5	Z5	X6	Y6	Z6	X7	Y7	Z7	X8	Y8	Z8	X9	Y9	Z9	X10	Y10	Z10	X11	Y11	Z11	X12	Y12	Z12	X13	Y13	Z13	X14	Y14	Z14	X15	Y15	Z15	X16	Y16	Z16	X17	Y17	Z17	X18	Y18	Z18	X19	Y19	Z19	X20	Y20	Z20	X21	Y21	Z21	X22	Y22	Z22	X23	Y23	Z23	X24	Y24	Z24	X25	Y25	Z25	X26	Y26	Z26	X27	Y27	Z27	X28	Y28	Z28	X29	Y29	Z29	X30	Y30	Z30	X31	Y31	Z31	X32	Y32	Z32	X33	Y33	Z33	X34	Y34	Z34	X35	Y35	Z35	X36	Y36	Z36	X37	Y37	Z37	X38	Y38	Z38	X39	Y39	Z39	X40	Y40	Z40	X41	Y41	Z41	X42	Y42	Z42	

265	2.640	-1121.53516	767.42395	1736.07666	-978.47363	756.47314	1714.30713	-1144.01172	651.88275	1641.63623	-1004.19824	629.15179	1616.58142	-1076.14856	600.93280	1509.95325	-1069.92090	543.06134	1235.44592	-1082.53735	738.70435	1438.40710	-1079.03699	786.40253	1265.19385	-1016.93201	538.65057	1335.92114	-1251.98792	684.78790	1487.57239	-1353.08862	726.39648	1303.32275	-1383.47021	782.11993	1174.06226	-1390.10913	869.06580	1071.56372	-1346.01062	982.31207	1005.81512	-1383.38293	949.31702	979.19501	-1386.41443	1005.33618	946.07629	-887.07239	672.31274	1469.44397	-810.87762	615.53259	1284.90442	-802.13116	608.56006	1135.65454	-789.56787	623.67981	1014.55194	-814.46490	660.61932	885.55450	-785.46326	611.25781	884.34344	-784.49139	642.79620	819.13715	-1222.33643	761.40698	972.14667	-964.30780	787.88483	961.22388	-1115.88953	560.80200	1015.38904	-1002.45764	565.86859	1012.46539	-1263.70850	643.42065	669.76160	-1233.60352	573.02850	478.06454	-1230.05847	461.72458	316.62393	-1196.25793	399.62820	99.68552	-1143.74731	360.60822	80.82822	-1214.97400	544.48615	35.18313	-882.01678	778.20996	663.52594	-928.04797	843.37726	467.58447	-928.50537	860.61670	280.10870	-963.31464	915.22644	94.03625	-1028.15479	913.88208	37.71718	-920.44421	1070.82715	76.24992	-1041.84973	648.05328	1782.23560						 
266	2.650	-1118.77917	776.73926	1735.24670	-975.66193	765.76093	1713.28308	-1141.36304	661.22089	1640.71899	-1001.57764	638.32556	1615.53564	-1073.49475	610.41528	1508.85315	-1067.58960	553.51440	1233.98596	-1079.98730	748.42004	1437.64429	-1076.54114	796.73450	1264.64075	-1014.74664	548.70233	1334.41638	-1249.30176	694.53925	1486.49438	-1350.48682	735.56940	1302.60339	-1380.69543	790.56268	1172.92078	-1387.47485	877.06537	1070.09045	-1343.60156	990.37115	1004.09583	-1380.73083	956.98877	977.44092	-1383.81323	1012.77509	943.98065	-884.64178	681.76703	1468.48669	-808.56958	625.31470	1283.92786	-800.17035	618.22687	1134.47961	-787.46948	633.40527	1013.57758	-812.36615	670.46271	884.46973	-783.36688	621.19250	883.42151	-782.44312	652.69714	818.18146	-1220.42908	772.75476	971.32758	-962.03827	799.66840	961.21021	-1113.62012	572.34723	1014.06744	-1000.51825	577.02411	1011.13806	-1262.54199	653.39117	669.29895	-1232.99988	581.73450	478.34567	-1229.59521	467.50928	319.02737	-1196.48352	401.25958	103.05887	-1144.16614	362.00412	85.08837	-1215.28918	544.55811	35.13478	-880.32434	791.71619	663.49237	-926.83856	853.36737	466.05289	-929.53442	866.79230	277.79086	-965.91248	917.30310	91.25362	-1029.89648	914.50500	35.20974	-923.71350	1072.86853	70.22139	-1039.23926	657.10602	1781.35779	-3360.21411	2845.10522	1033.79871			 
267	2.660	-1115.84058	785.96576	1734.47278	-972.79437	774.74298	1712.54175	-1138.65015	670.48932	1639.78003	-998.96448	647.60681	1614.52637	-1070.82434	619.77484	1507.59607	-1064.95532	563.94110	1232.26904	-1077.34521	758.09277	1436.91650	-1073.92249	807.20599	1264.19177	-1012.22711	558.81067	1332.87488	-1246.63306	704.17059	1485.56812	-1347.11877	744.66718	1301.65613	-1377.82642	798.74292	1171.78259	-1384.56970	884.58698	1068.38208	-1340.99194	997.55859	1001.79028	-1378.01782	964.05261	975.35541	-1381.10803	1019.64307	941.55322	-881.99463	691.14410	1467.60669	-806.02948	634.94006	1282.93506	-797.87695	628.20294	1133.57104	-785.32288	643.23242	1012.53278	-810.02545	681.00623	883.60101	-781.25708	631.23969	882.40955	-780.31940	662.74030	817.12006	-1218.27405	784.46948	970.64166	-959.59241	811.47119	961.35455	-1111.08459	584.01813	1012.75885	-998.27344	588.40936	1009.83728	-1261.29211	663.58331	669.03955	-1232.32788	590.85352	478.71600	-1228.97083	473.52600	321.67859	-1196.87109	403.11743	106.77766	-1144.94263	364.01282	89.75648	-1215.51428	544.73694	35.13208	-878.36005	804.71411	662.89929	-925.59448	862.59778	464.43469	-930.65875	873.13824	275.72296	-966.81879	921.13275	89.67053	-1030.04504	915.76563	36.27559	-926.76587	1077.36658	63.24169	-1036.23486	666.35571	1780.32129	-3360.25000	2845.29883	1033.72192			 
268	2.670	-1112.80823	795.28619	1734.21936	-969.74200	784.07050	1712.02905	-1135.83777	680.08057	1639.33179	-996.51575	656.76343	1613.71497	-1068.22632	628.88757	1506.58215	-1062.13208	574.39154	1231.57166	-1074.66370	767.86456	1436.39404	-1071.21143	817.69415	1264.16187	-1009.63733	568.63354	1331.92786	-1243.93152	713.70313	1484.86499	-1344.02979	753.72675	1300.82446	-1374.71973	806.64148	1170.61462	-1381.57727	891.73358	1066.56226	-1338.32129	1004.38782	999.26215	-1375.19055	970.60223	973.01392	-1378.37866	1025.92273	938.78900	-879.29297	700.59973	1466.83740	-803.61365	644.53436	1281.84595	-795.51202	638.17523	1132.54785	-783.04724	653.61987	1011.44714	-807.70123	691.02533	882.56677	-779.11884	641.54218	881.23071	-778.12585	673.02820	816.16223	-1215.87866	796.61932	970.11646	-957.06299	823.00177	961.64111	-1108.48584	595.53461	1011.55438	-995.88513	599.99365	1008.65698	-1259.82007	674.08502	668.85718	-1231.46680	600.49811	479.22672	-1228.32495	479.99008	324.62598	-1197.56299	405.41565	111.02236	-1145.42175	366.36804	95.24623	-1215.77576	544.99353	35.13198	-876.25519	816.25623	662.72144	-923.62341	872.08826	463.74786	-931.41705	881.55750	275.07355	-964.30530	928.47119	90.37766	-1027.50940	919.36420	38.90082	-927.22906	1085.10974	57.31691	-1033.28430	675.39728	1779.83948	-3360.26587	2845.17773	1033.80518			 
269	2.680	-1109.61560	804.57605	1734.54541	-966.53912	793.38031	1712.07227	-1133.00061	689.61346	1639.42651	-993.79919	666.15375	1613.53491	-1065.57605	637.94092	1506.16089	-1059.47412	584.86371	1231.24658	-1071.93958	777.49573	1436.41235	-1068.48608	828.03168	1264.58167	-1007.37714	578.89545	1331.37280	-1241.34998	722.90375	1484.53430	-1340.91431	762.58826	1300.02808	-1371.40955	814.25262	1169.39990	-1378.45667	898.48462	1064.74768	-1335.58008	1010.81744	996.52692	-1372.24817	976.53961	970.45038	-1375.60925	1031.55896	935.71649	-876.39410	710.02283	1466.28699	-800.83954	654.49579	1281.03833	-793.03375	648.42017	1131.60913	-780.53271	663.72217	1010.69061	-805.26501	701.75519	881.82904	-776.84558	652.13391	880.39886	-775.68835	683.94995	815.32141	-1213.21448	808.94550	969.71436	-954.39606	834.35309	962.11877	-1105.87109	607.10620	1010.75256	-993.31836	611.89386	1008.09259	-1258.21985	685.02618	668.92908	-1230.61096	610.84094	479.99963	-1227.62878	487.10498	327.95816	-1198.32092	408.24631	115.84764	-1146.11646	369.16306	101.31008	-1216.05444	545.25098	35.14245	-874.03052	826.27277	663.33496	-921.04791	882.49628	464.63477	-927.33160	891.69147	276.43619	-961.15521	935.86670	90.52714	-1025.13245	921.69012	40.47033	-927.10339	1090.67444	54.09149	-1030.01453	684.47601	1779.67480	-3360.26733	2845.14990	1033.84570			 
270	2.690	-1106.30469	813.87848	1735.24634	-963.46375	802.22693	1712.53516	-1129.99463	699.03137	1640.06726	-990.51978	675.66254	1614.10925	-1062.82385	647.45142	1506.38611	-1057.13684	595.39240	1230.93555	-1069.13086	786.94745	1436.95361	-1065.66345	838.36340	1265.47498	-1004.65698	588.70343	1331.32642	-1239.00903	732.20905	1484.61121	-1337.69446	771.08502	1299.32300	-1367.83301	821.61462	1168.25024	-1375.20776	904.68835	1062.74695	-1332.72388	1016.41760	993.37372	-1369.30298	981.85779	967.78308	-1372.73608	1036.52991	932.37103	-873.32892	719.44824	1465.99243	-798.21552	664.35693	1280.50708	-790.50800	658.72504	1130.81836	-777.81879	674.60962	1010.00159	-802.72491	712.66656	881.33008	-774.46692	662.99402	879.74762	-773.03473	695.01831	814.90039	-1210.21460	821.37946	969.52789	-951.68011	845.64886	962.87146	-1103.52209	618.92682	1010.43213	-990.61835	623.84198	1008.63654	-1256.37451	696.44318	669.37744	-1229.72192	622.14331	480.80087	-1227.00879	495.15546	331.78046	-1199.01819	411.68906	121.32225	-1146.67542	373.14825	108.02812	-1216.30652	545.64008	35.21024	-871.75360	835.49817	664.26154	-918.92432	895.07837	467.14081	-921.57947	903.70013	278.89447	-959.99628	939.19635	90.62366	-1024.37305	922.41339	41.13765	-926.47430	1091.84534	50.09573	-1027.11780	693.49164	1780.17712	-3357.16187	2845.85010	1033.69104			 
271	2.700	-1102.96436	823.26245	1736.23010	-960.00922	811.53131	1713.30005	-1127.05322	708.40405	1641.18811	-988.08099	684.40509	1614.88733	-1060.24756	657.03052	1507.01550	-1055.23352	606.01007	1231.28760	-1066.27539	796.25507	1437.91504	-1062.69910	848.77356	1266.81689	-1002.14362	598.88550	1331.72961	-1236.77673	741.37994	1485.18689	-1334.30212	779.38104	1298.72815	-1364.14587	828.71667	1167.18237	-1372.00171	910.46082	1060.81580	-1329.79639	1021.54437	990.14539	-1366.13013	986.48077	964.89459	-1369.75293	1040.68628	928.77008	-870.29211	728.97705	1466.03455	-795.26453	674.59210	1280.28052	-787.84491	669.53943	1130.65979	-775.25427	685.47198	1009.74969	-800.05035	723.79474	881.15778	-771.84088	674.18036	879.49365	-770.77338	706.38239	814.83154	-1207.12024	833.78766	969.51703	-948.77899	856.91010	964.00195	-1101.45337	631.07257	1010.81360	-987.81104	635.56738	1010.08838	-1254.34021	708.25378	669.94537	-1229.06897	634.60590	482.09259	-1226.43823	504.30130	335.97638	-1199.74255	415.70731	127.48780	-1147.28809	377.67020	115.45115	-1216.66565	545.99921	35.23943	-869.72168	844.66162	665.49298	-917.53027	908.20740	469.66791	-918.16992	914.84802	280.90070	-960.32263	940.45453	91.38536	-1024.05884	922.41998	41.33186	-928.47223	1092.68518	48.08398	-1023.73352	702.78925	1781.01147	-3357.02002	2845.77124	1033.68176			 
272	2.710	-1099.52649	832.66473	1737.32532	-956.80536	820.45087	1713.96545	-1124.06494	717.72131	1642.55469	-984.78290	693.60553	1616.10120	-1057.30566	666.69366	1508.16577	-1053.39893	616.51178	1231.62683	-1063.50635	805.71039	1439.29053	-1059.72156	859.13354	1268.45813	-999.56702	608.84332	1332.04053	-1234.59814	750.60333	1486.17371	-1331.32275	787.37634	1298.50745	-1360.36804	835.47534	1166.38782	-1368.13379	915.69592	1058.84009	-1326.81006	1025.97217	986.74939	-1362.91064	990.39795	961.99335	-1366.74207	1043.99341	925.05200	-867.41113	738.47424	1466.57776	-792.34027	684.94537	1280.19446	-785.30237	680.58826	1130.62683	-772.73352	696.55872	1009.89185	-797.32629	735.33875	881.41962	-769.14832	685.70953	879.65125	-767.65350	717.96814	815.11328	-1203.50500	846.04865	969.78888	-945.69659	868.10602	965.33044	-1099.71741	643.28815	1011.86749	-985.11993	647.00085	1012.20807	-1252.21130	720.57257	670.60724	-1228.51746	648.36829	483.25687	-1225.97717	514.58984	340.50629	-1200.44641	420.83841	134.25679	-1147.17712	383.38016	123.67232	-1217.00244	546.31824	35.27162	-868.41339	854.70935	666.72913	-916.35327	920.75690	471.26111	-916.24835	924.11841	282.15652	-960.04126	942.89044	92.72073	-1023.58276	922.79706	41.71301	-930.50275	1095.10339	46.99911	-1020.61139	712.17236	1782.04907	-3357.16284	2845.83643	1033.66138			 
